HIERARCHY
ROOT Hips
{
	OFFSET 0.00000 0.00000 0.00000
	CHANNELS 6 Xposition Yposition Zposition Zrotation Yrotation Xrotation 
	JOINT LHipJoint
	{
		OFFSET 0 0 0
		CHANNELS 3 Zrotation Yrotation Xrotation
		JOINT LeftHip
		{
			OFFSET 1.37590 -1.78394 0.89329
			CHANNELS 3 Zrotation Yrotation Xrotation
			JOINT LeftKnee
			{
				OFFSET 2.47928 -6.81178 0.00000
				CHANNELS 3 Zrotation Yrotation Xrotation
				JOINT LeftAnkle
				{
					OFFSET 2.63345 -7.23535 0.00000
					CHANNELS 3 Zrotation Yrotation Xrotation
					JOINT LeftToe
					{
						OFFSET 0.23938 -0.65768 2.27012
						CHANNELS 3 Zrotation Yrotation Xrotation
						End Site
						{
							OFFSET 0.00000 -0.00000 1.18363
						}
					}
				}
			}
		}
	}
	JOINT RHipJoint
	{
		OFFSET 0 0 0
		CHANNELS 3 Zrotation Yrotation Xrotation
		JOINT RightHip
		{
			OFFSET -1.33617 -1.78394 0.89329
			CHANNELS 3 Zrotation Yrotation Xrotation
			JOINT RightKnee
			{
				OFFSET -2.56922 -7.05888 0.00000
				CHANNELS 3 Zrotation Yrotation Xrotation
				JOINT RightAnkle
				{
					OFFSET -2.56568 -7.04915 0.00000
					CHANNELS 3 Zrotation Yrotation Xrotation
					JOINT RightToe
					{
						OFFSET -0.27533 -0.75646 2.18105
						CHANNELS 3 Zrotation Yrotation Xrotation
						End Site
						{
							OFFSET -0.00000 -0.00000 1.15233
						}
					}
				}
			}
		}
	}
	JOINT lowerback
	{
		OFFSET 0 0 0
		CHANNELS 3 Zrotation Yrotation Xrotation
		JOINT Chest
		{
			OFFSET 0.06190 2.15152 -0.00935
			CHANNELS 3 Zrotation Yrotation Xrotation
			JOINT Chest2
			{
				OFFSET 0.06334 2.15332 0.00872
				CHANNELS 3 Zrotation Yrotation Xrotation
				JOINT lowerneck
				{
					OFFSET 0 0 0
					CHANNELS 3 Zrotation Yrotation Xrotation
					JOINT Neck
					{
						OFFSET -0.04202 1.66908 0.23524
						CHANNELS 3 Zrotation Yrotation Xrotation
						JOINT Head
						{
							OFFSET 0.07510 1.69357 -0.24440
							CHANNELS 3 Zrotation Yrotation Xrotation
							End Site
							{
								OFFSET 0.02556 1.71719 -0.11000
							}
						}
					}
				}
				JOINT LeftCollar
				{
					OFFSET 0 0 0
					CHANNELS 3 Zrotation Yrotation Xrotation
					JOINT LeftShoulder
					{
						OFFSET 3.67168 1.26306 -0.41342
CHANNELS 3 Zrotation Xrotation Yrotation
						JOINT LeftElbow
						{
OFFSET 0 -4.685100 -0.000000
CHANNELS 3 Zrotation Xrotation Yrotation
							JOINT LeftWrist
							{
OFFSET 0 -3.396260 -0.000000
CHANNELS 3 Zrotation Xrotation Yrotation
								JOINT lhand
								{
									OFFSET 0 0 0
CHANNELS 3 Zrotation Xrotation Yrotation
									JOINT LFingers
									{
OFFSET 0 -0.486080 -0.000000
CHANNELS 3 Zrotation Xrotation Yrotation
										End Site
										{
OFFSET 0 -0.391890 -0.000000
										}
									}
								}
								JOINT LThumb
								{
OFFSET 0 0.000000 0.000000
CHANNELS 3 Zrotation Xrotation Yrotation
									End Site
									{
OFFSET 0 -0.397870 0.397870
									}
								}
							}
						}
					}
				}
				JOINT RightCollar
				{
					OFFSET 0 0 0
					CHANNELS 3 Zrotation Yrotation Xrotation
					JOINT RightShoulder
					{
						OFFSET -3.04136 1.42992 -0.76390
CHANNELS 3 Zrotation Xrotation Yrotation
						JOINT RightElbow
						{
OFFSET 0 -5.555760 -0.000000
CHANNELS 3 Zrotation Xrotation Yrotation
							JOINT RightWrist
							{
OFFSET 0 -3.327740 -0.000000
CHANNELS 3 Zrotation Xrotation Yrotation
								JOINT rhand
								{
									OFFSET 0 0 0
CHANNELS 3 Zrotation Xrotation Yrotation
									JOINT RFingers
									{
OFFSET 0 -0.507630 -0.000000
CHANNELS 3 Zrotation Xrotation Yrotation
										End Site
										{
OFFSET 0 -0.409260 -0.000000
										}
									}
								}
								JOINT RThumb
								{
OFFSET 0 0.000000 0.000000
CHANNELS 3 Zrotation Xrotation Yrotation
									End Site
									{
OFFSET 0 -0.415510 0.415510
									}
								}
							}
						}
					}
				}
			}
		}
	}
}
MOTION
Frames: 12
Frame Time: 0.008333333333333333
-6.139090 17.838391 4.413144 -130.626255 -81.063577 138.265987 0.000000 0.000000 0.000000 -9.105043 -12.130979 -25.430950 0.948584 6.202635 17.373531 -0.044046 3.722053 -1.529689 0.003396 -0.369301 -1.014774 0.000000 0.000000 0.000000 28.458282 0.312574 -8.159240 -4.181797 -12.396758 37.152947 -0.140775 3.320553 -6.709677 -0.100388 -2.042648 5.623517 4.560789 1.122750 -2.931866 3.313047 1.318346 -2.672259 0.876557 0.570705 -1.077813 -7.502143 -4.090597 -15.335196 9.211357 -5.077239 7.837795 3.657207 -2.106494 5.292808 0.000000 0.000000 0.000000 -6.497720 -40.595628 -77.297396 27.382091 -38.541083 9.736236 35.350203 24.801610 -38.480886 0.000000 0.000000 0.000000 -7.125000 0.000000 0.000000 0.920179 74.240243 -0.635764 0.000000 0.000000 0.000000 -1.708997 -32.689473 55.967643 -40.265072 -48.221651 -18.638086 -3.478592 -37.737694 46.051445 0.000000 0.000000 0.000000 7.125000 0.000000 0.000000 52.605084 69.407779 -33.845898
-6.357790 17.852365 4.430694 -132.073446 -81.253927 139.470913 0.000000 0.000000 0.000000 -9.884024 -11.844691 -24.671943 0.981676 6.306684 17.677012 -0.034330 3.293358 -1.484807 0.000363 -0.092163 -0.253174 0.000000 0.000000 0.000000 27.763427 0.270035 -8.801168 -4.630927 -12.953905 39.199078 -0.102622 2.484603 -5.695552 -0.090604 -1.941232 5.343283 4.309408 1.047281 -2.948163 3.269697 1.227169 -2.773546 0.969469 0.526777 -1.178347 -7.533126 -4.102662 -15.116793 9.252954 -5.086240 7.521569 3.676144 -2.118389 5.161538 0.000000 0.000000 0.000000 -6.531821 -43.428946 -76.095423 27.440101 -38.595637 9.772415 35.633117 25.194111 -38.457616 0.000000 0.000000 0.000000 -7.125000 0.000000 0.000000 1.459787 74.314690 -1.010918 0.000000 0.000000 0.000000 -1.810843 -34.903516 55.009460 -42.700938 -49.585073 -20.474565 -4.832338 -35.702865 46.047872 0.000000 0.000000 0.000000 7.125000 0.000000 0.000000 51.413620 69.856889 -33.408804
-6.577141 17.868228 4.447507 -133.475109 -81.468410 140.633134 0.000000 0.000000 0.000000 -10.673039 -11.557451 -23.858725 1.010177 6.394878 17.934638 -0.025399 2.854238 -1.485928 0.000869 0.175783 0.482884 0.000000 0.000000 0.000000 27.061461 0.250362 -9.522208 -5.105866 -13.500558 41.275241 -0.070944 1.530801 -4.727458 -0.083583 -1.864676 5.131815 4.044811 0.966264 -2.957611 3.226732 1.129241 -2.880576 1.070296 0.479826 -1.288387 -7.571705 -4.111864 -14.881304 9.308296 -5.090106 7.162967 3.701456 -2.128138 5.014877 0.000000 0.000000 0.000000 -6.596224 -46.308125 -74.740201 27.431681 -38.587728 9.767145 35.901499 25.510587 -38.462907 0.000000 0.000000 0.000000 -7.125000 0.000000 0.000000 1.951066 74.413570 -1.355324 0.000000 0.000000 0.000000 -1.911528 -37.115872 53.925559 -45.451457 -50.982189 -22.590525 -6.326572 -33.502355 45.982584 0.000000 0.000000 0.000000 7.125000 0.000000 0.000000 49.942192 70.320954 -32.763943
-6.796929 17.885797 4.463516 -134.857042 -81.702301 141.783521 0.000000 0.000000 0.000000 -11.466329 -11.263390 -22.993511 1.031883 6.461310 18.128995 -0.017272 2.410172 -1.538706 0.004469 0.426390 1.171533 0.000000 0.000000 0.000000 26.357188 0.257491 -10.318713 -5.601396 -14.028798 43.356728 -0.044381 0.485122 -3.832187 -0.078989 -1.813221 4.989803 3.767661 0.881150 -2.960625 3.184812 1.026131 -2.992422 1.179383 0.430796 -1.406463 -7.617032 -4.118339 -14.631285 9.375242 -5.088553 6.757599 3.732291 -2.135883 4.851877 0.000000 0.000000 0.000000 -6.681361 -49.214814 -73.240035 27.357131 -38.517645 9.720755 36.167203 25.763368 -38.496468 0.000000 0.000000 0.000000 -7.125000 0.000000 0.000000 2.417153 74.540610 -1.685701 0.000000 0.000000 0.000000 -2.020330 -39.312517 52.729150 -48.564223 -52.391199 -25.034308 -7.939563 -31.165532 45.825593 0.000000 0.000000 0.000000 7.125000 0.000000 0.000000 48.124626 70.773409 -31.835273
-7.016881 17.904631 4.478567 -136.213482 -81.953165 142.917384 0.000000 0.000000 0.000000 -12.256805 -10.963501 -22.083851 1.046207 6.504666 18.256003 -0.009857 1.964718 -1.644702 0.010350 0.653488 1.795730 0.000000 0.000000 0.000000 25.656603 0.288727 -11.181637 -6.110012 -14.532970 45.419462 -0.020797 -0.620792 -3.029223 -0.076450 -1.783676 4.908249 3.480954 0.791764 -2.957454 3.144680 0.917386 -3.106724 1.295713 0.379427 -1.530063 -7.666627 -4.122261 -14.374971 9.451833 -5.081554 6.307358 3.767624 -2.141346 4.674425 0.000000 0.000000 0.000000 -6.771807 -52.133046 -71.613212 27.224038 -38.391973 9.637922 36.438253 25.970039 -38.552412 0.000000 0.000000 0.000000 -7.125000 0.000000 0.000000 2.879549 74.693001 -2.017765 0.000000 0.000000 0.000000 -2.148259 -41.483944 51.441120 -52.060458 -53.787081 -27.829946 -9.653078 -28.730425 45.558609 0.000000 0.000000 0.000000 7.125000 0.000000 0.000000 45.919867 71.193088 -30.576140
-7.236798 17.924519 4.492400 -137.558145 -82.217057 144.052294 0.000000 0.000000 0.000000 -13.036549 -10.654253 -21.134883 1.052170 6.522542 18.308259 -0.002916 1.518254 -1.804788 0.017654 0.854915 2.349725 0.000000 0.000000 0.000000 24.965240 0.347799 -12.106830 -6.623953 -15.005295 47.434449 0.001826 -1.760483 -2.343762 -0.075433 -1.771492 4.874578 3.186331 0.699327 -2.950210 3.106973 0.804239 -3.222667 1.419295 0.326530 -1.656862 -7.719979 -4.123498 -14.107096 9.538474 -5.068924 5.801252 3.807545 -2.144938 4.478403 0.000000 0.000000 0.000000 -6.847711 -55.042042 -69.865035 27.035376 -38.212836 9.520989 36.729052 26.154820 -38.624553 0.000000 0.000000 0.000000 -7.125000 0.000000 0.000000 3.373622 74.869134 -2.376890 0.000000 0.000000 0.000000 -2.312725 -43.614036 50.070068 -55.996143 -55.133847 -31.034524 -11.435471 -26.253146 45.166479 0.000000 0.000000 0.000000 7.125000 0.000000 0.000000 43.303204 71.552503 -28.952260
-7.456342 17.945173 4.505010 -138.902424 -82.490359 145.200935 0.000000 0.000000 0.000000 -13.801894 -10.335031 -20.158134 1.050482 6.517346 18.293164 0.003668 1.073842 -2.011171 0.025621 1.032617 2.838634 0.000000 0.000000 0.000000 24.285323 0.432700 -13.083564 -7.134626 -15.443400 49.380219 0.025464 -2.906482 -1.782084 -0.075641 -1.773768 4.880781 2.885309 0.604585 -2.938537 3.071208 0.687830 -3.339985 1.548977 0.272574 -1.786677 -7.778738 -4.120455 -13.829579 9.636657 -5.048648 5.245965 3.853031 -2.145459 4.266208 0.000000 0.000000 0.000000 -6.885779 -57.923608 -68.009290 26.802656 -37.990357 9.377432 37.042175 26.330858 -38.694604 0.000000 0.000000 0.000000 -7.125000 0.000000 0.000000 3.921805 75.050885 -2.778449 0.000000 0.000000 0.000000 -2.525372 -45.695548 48.632879 -60.355354 -56.397373 -34.638406 -13.257404 -23.782605 44.631882 0.000000 0.000000 0.000000 7.125000 0.000000 0.000000 40.263039 71.820732 -26.943132
-7.675129 17.966265 4.516383 -140.231199 -82.775226 146.349139 0.000000 0.000000 0.000000 -14.547976 -10.010286 -19.157701 1.041190 6.489334 18.211102 0.010260 0.641522 -2.266110 0.033582 1.182726 3.251834 0.000000 0.000000 0.000000 23.620451 0.538815 -14.107553 -7.631237 -15.839935 51.221138 0.052110 -4.038289 -1.366247 -0.076906 -1.789133 4.923256 2.580109 0.506508 -2.921056 3.037405 0.566378 -3.456640 1.683205 0.216712 -1.918177 -7.838115 -4.112891 -13.539934 9.743170 -5.020331 4.629310 3.902370 -2.143278 4.033715 0.000000 0.000000 0.000000 -6.847988 -60.756679 -66.037644 26.531647 -37.728750 9.211139 37.381527 26.515588 -38.744913 0.000000 0.000000 0.000000 -7.125000 0.000000 0.000000 4.550411 75.221382 -3.240887 0.000000 0.000000 0.000000 -2.810837 -47.714843 47.130845 -65.168771 -57.523702 -38.675830 -15.062435 -21.392881 43.934219 0.000000 0.000000 0.000000 7.125000 0.000000 0.000000 36.822129 71.947747 -24.552259
-7.893147 17.987487 4.526374 -141.547589 -83.064618 147.498915 0.000000 0.000000 0.000000 -15.269645 -9.680623 -18.140416 1.025790 6.442805 18.074662 0.017259 0.224701 -2.572933 0.040870 1.304176 3.586147 0.000000 0.000000 0.000000 22.974423 0.663132 -15.164355 -8.106086 -16.196240 52.943122 0.082681 -5.141270 -1.089866 -0.078750 -1.810672 4.982731 2.275296 0.406726 -2.899239 3.006204 0.442115 -3.569722 1.820429 0.160031 -2.047466 -7.899408 -4.100725 -13.240689 9.858315 -4.983960 3.955497 3.955819 -2.138249 3.782621 0.000000 0.000000 0.000000 -6.700234 -63.532000 -63.951323 26.236896 -37.441667 9.031292 37.739565 26.719288 -38.771737 0.000000 0.000000 0.000000 -7.125000 0.000000 0.000000 5.247511 75.374138 -3.754840 0.000000 0.000000 0.000000 -3.181981 -49.673077 45.570757 -70.359607 -58.485254 -43.078037 -16.816825 -19.120185 43.101712 0.000000 0.000000 0.000000 7.125000 0.000000 0.000000 33.124980 71.929580 -21.910060
-8.110075 18.008449 4.534983 -142.832558 -83.355307 148.632494 0.000000 0.000000 0.000000 -15.958014 -9.345971 -17.110665 1.004870 6.378788 17.887528 0.024964 -0.179755 -2.924502 0.046902 1.397274 3.842655 0.000000 0.000000 0.000000 22.354754 0.803226 -16.247261 -8.545824 -16.505566 54.504428 0.118377 -6.200396 -0.973985 -0.081581 -1.842296 5.069985 1.976691 0.306116 -2.873948 2.978149 0.315924 -3.676966 1.957860 0.102975 -2.171653 -7.962028 -4.083291 -12.928319 9.981997 -4.938658 3.217540 4.013447 -2.130416 3.510475 0.000000 0.000000 0.000000 -6.363097 -66.225165 -61.710912 25.927782 -37.137144 8.844057 38.109944 26.948005 -38.762745 0.000000 0.000000 0.000000 -7.125000 0.000000 0.000000 6.011290 75.493422 -4.317497 0.000000 0.000000 0.000000 -3.676889 -51.555191 43.940085 -75.887694 -59.219928 -47.811444 -18.472660 -17.019418 42.129361 0.000000 0.000000 0.000000 7.125000 0.000000 0.000000 29.284959 71.726766 -19.113473
-8.325930 18.028790 4.542224 -144.096467 -83.641424 149.758813 0.000000 0.000000 0.000000 -16.612549 -9.004490 -16.077695 0.980302 6.302566 17.664863 0.033516 -0.567682 -3.303181 0.051291 1.461195 4.018920 0.000000 0.000000 0.000000 21.761954 0.959169 -17.343957 -8.945748 -16.772460 55.902001 0.158988 -7.215233 -0.998603 -0.085191 -1.883038 5.182381 1.685910 0.206467 -2.846719 2.953785 0.190112 -3.778416 2.095137 0.046405 -2.289898 -8.028627 -4.060536 -12.605455 10.116587 -4.884330 2.423608 4.076527 -2.119551 3.220319 0.000000 0.000000 0.000000 -5.781569 -68.831113 -59.289594 25.616862 -36.827820 8.657042 38.477533 27.193719 -38.716322 0.000000 0.000000 0.000000 -7.125000 0.000000 0.000000 6.808293 75.572310 -4.902238 0.000000 0.000000 0.000000 -4.304622 -53.365711 42.237275 -81.609255 -59.727943 -52.740227 -19.998947 -15.096680 41.046627 0.000000 0.000000 0.000000 7.125000 0.000000 0.000000 25.470314 71.346006 -16.309731
-8.540467 18.048205 4.547884 -145.334260 -83.920222 150.877696 0.000000 0.000000 0.000000 -17.226042 -8.660967 -15.047471 0.952541 6.215154 17.409911 0.043097 -0.937462 -3.703469 0.053303 1.490308 4.098972 0.000000 0.000000 0.000000 21.201468 1.132900 -18.446059 -9.289807 -16.990175 57.086311 0.205366 -8.179377 -1.176225 -0.090157 -1.936820 5.331152 1.405389 0.108011 -2.818801 2.933538 0.065001 -3.871924 2.231299 -0.009425 -2.399291 -8.097128 -4.029928 -12.273213 10.261301 -4.817718 1.567988 4.144833 -2.104457 2.910569 0.000000 0.000000 0.000000 -4.777499 -71.320401 -56.559198 25.320249 -36.529341 8.479813 38.829998 27.448571 -38.634052 0.000000 0.000000 0.000000 -7.125000 0.000000 0.000000 7.607852 75.607805 -5.484980 0.000000 0.000000 0.000000 -5.117192 -55.091288 40.433866 -87.399250 -59.960929 -57.748213 -21.361867 -13.381151 39.877374 0.000000 0.000000 0.000000 7.125000 0.000000 0.000000 21.861674 70.783197 -13.662805
